<svg xmlns="http://www.w3.org/2000/svg" xmlns:xlink="http://www.w3.org/1999/xlink" width="392.559" height="474.755" viewBox="0 0 392.559 474.755">
  <defs>
    <linearGradient id="linear-gradient" y1="0.5" x2="1" y2="0.5" gradientUnits="objectBoundingBox">
      <stop offset="0" stop-color="#f7ac2f"/>
      <stop offset="1" stop-color="#f7ac2f" stop-opacity="0"/>
    </linearGradient>
  </defs>
  <g id="Group_34346" data-name="Group 34346" transform="translate(-230.238 -198.549)">
    <path id="Path_63224" data-name="Path 63224" d="M361.829,225.624a111.453,111.453,0,0,0,0,222.907c2.341,0,4.637-.207,6.948-.355V364.6a7.408,7.408,0,0,1,14.815,0v81.764a111.445,111.445,0,0,0-21.763-220.744Z" transform="translate(129.031 173.483)" fill="url(#linear-gradient)"/>
    <path id="Path_63225" data-name="Path 63225" d="M392.232,200.364A156.769,156.769,0,0,0,308.5,224.6v73.06a7.408,7.408,0,0,1-14.815,0v-62.6a157.59,157.59,0,1,0,98.55-34.7Z" transform="translate(27.569 11.63)" fill="url(#linear-gradient)"/>
    <path id="Path_63226" data-name="Path 63226" d="M247.933,362.274a7.41,7.41,0,0,1-7.408-7.407V206.9a7.408,7.408,0,0,1,14.815,0V354.867A7.41,7.41,0,0,1,247.933,362.274Z" transform="translate(65.911 6.055)" fill="#f7ac2f"/>
    <path id="Path_63227" data-name="Path 63227" d="M323.391,231.623a67.016,67.016,0,1,0,6.948,133.668V326.165a7.408,7.408,0,0,1,14.815,0v35.8a66.984,66.984,0,0,0-21.763-130.342Z" transform="translate(167.47 211.922)" fill="#f7ac2f"/>
    <path id="Path_63228" data-name="Path 63228" d="M275.767,403.439a7.406,7.406,0,0,1-7.407-7.407V248.073a7.408,7.408,0,0,1,14.815,0V396.031A7.406,7.406,0,0,1,275.767,403.439Z" transform="translate(244.264 269.865)" fill="#f7ac2f"/>
    <circle id="Ellipse_1904" data-name="Ellipse 1904" cx="111.451" cy="111.451" r="111.451" transform="translate(230.238 375.277)" fill="url(#linear-gradient)"/>
    <circle id="Ellipse_1905" data-name="Ellipse 1905" cx="67.014" cy="67.014" r="67.014" transform="translate(274.675 419.714)" fill="#f7ac2f"/>
    <circle id="Ellipse_1906" data-name="Ellipse 1906" cx="94.818" cy="94.818" r="94.818" transform="translate(324.982 274.869)" fill="#f7ac2f"/>
    <circle id="Ellipse_1907" data-name="Ellipse 1907" cx="101.558" cy="101.558" r="101.558" transform="translate(303.655 323.358)" fill="#f7ac2f"/>
    <circle id="Ellipse_1908" data-name="Ellipse 1908" cx="17.273" cy="17.273" r="17.273" transform="translate(362.135 628.68)" fill="#f7ac2f"/>
    <circle id="Ellipse_1909" data-name="Ellipse 1909" cx="17.273" cy="17.273" r="17.273" transform="translate(588.251 358.004)" fill="#f7ac2f"/>
    <circle id="Ellipse_1910" data-name="Ellipse 1910" cx="9.809" cy="9.809" r="9.809" transform="translate(242.49 236.943)" fill="#f7ac2f"/>
    <g id="Group_34342" data-name="Group 34342" transform="translate(531.269 237.72)">
      <path id="Path_63229" data-name="Path 63229" d="M341.471,215.76h-66.89a3.7,3.7,0,1,1,0-7.407h66.89a3.7,3.7,0,1,1,0,7.407Z" transform="translate(-270.877 -174.907)" fill="#fff"/>
      <path id="Path_63230" data-name="Path 63230" d="M279.1,278.134a3.7,3.7,0,0,1-3.7-3.7v-66.89a3.7,3.7,0,1,1,7.407,0v66.89A3.7,3.7,0,0,1,279.1,278.134Z" transform="translate(-241.947 -203.837)" fill="#fff"/>
    </g>
    <g id="Group_34343" data-name="Group 34343" transform="translate(237.524 540.42)">
      <path id="Path_63231" data-name="Path 63231" d="M286.267,255.575H234.926a3.7,3.7,0,1,1,0-7.407h51.342a3.7,3.7,0,0,1,0,7.407Z" transform="translate(-231.222 -222.493)" fill="#fff"/>
      <path id="Path_63232" data-name="Path 63232" d="M238.392,303.457a3.7,3.7,0,0,1-3.7-3.7V248.4a3.7,3.7,0,0,1,7.407,0v51.349A3.705,3.705,0,0,1,238.392,303.457Z" transform="translate(-209.014 -244.701)" fill="#fff"/>
    </g>
    <g id="Group_34344" data-name="Group 34344" transform="translate(270.969 198.549)">
      <path id="Path_63233" data-name="Path 63233" d="M268.411,207.911H239.441a3.7,3.7,0,1,1,0-7.407h28.971a3.7,3.7,0,1,1,0,7.407Z" transform="translate(-235.737 -186.022)" fill="#fff"/>
      <path id="Path_63234" data-name="Path 63234" d="M241.4,234.92a3.7,3.7,0,0,1-3.7-3.7V202.253a3.7,3.7,0,0,1,7.407,0v28.963A3.7,3.7,0,0,1,241.4,234.92Z" transform="translate(-223.21 -198.549)" fill="#fff"/>
    </g>
    <g id="Group_34345" data-name="Group 34345" transform="translate(293.688 290.076)">
      <path id="Path_63235" data-name="Path 63235" d="M339.325,215.03a96.527,96.527,0,1,0,96.527,96.527A96.635,96.635,0,0,0,339.325,215.03Zm34.986,126.454a26.6,26.6,0,0,1-5.267,8.563,31.369,31.369,0,0,1-8.571,6.585,36.05,36.05,0,0,1-11.637,3.741V376.18H333.91V360.513a38.879,38.879,0,0,1-13.319-4.1,35.492,35.492,0,0,1-9.511-7.237,32.859,32.859,0,0,1-5.934-9.082,31.92,31.92,0,0,1-2.563-9.585l18.156-4.393a20.307,20.307,0,0,0,1.681,6.652,18.225,18.225,0,0,0,3.882,5.637,17.847,17.847,0,0,0,6.148,3.956,23.561,23.561,0,0,0,8.778,1.467q7.167,0,11.126-3.074a9.578,9.578,0,0,0,3.956-7.911,8.892,8.892,0,0,0-2.711-6.5q-2.711-2.711-8.267-3.882l-13.467-2.934q-11.867-2.622-18.734-9.8a24.563,24.563,0,0,1-6.882-17.711,27.316,27.316,0,0,1,2.118-10.83,28.159,28.159,0,0,1,5.852-8.778,33.351,33.351,0,0,1,8.785-6.37,35.742,35.742,0,0,1,10.9-3.444V246.934h14.926v16.1a34.452,34.452,0,0,1,10.9,3.807,33.049,33.049,0,0,1,7.763,5.993,28.3,28.3,0,0,1,4.97,7.252,32.787,32.787,0,0,1,2.563,7.526l-18,5.141a18.867,18.867,0,0,0-1.244-4.259,15.023,15.023,0,0,0-2.926-4.467,16.1,16.1,0,0,0-4.978-3.511,18.061,18.061,0,0,0-7.533-1.378q-7.022,0-10.756,3.437a10.521,10.521,0,0,0-3.741,7.971,8.477,8.477,0,0,0,2.5,6.007q2.478,2.622,7.607,3.807l13.319,3.074q13.9,3.078,20.341,10.682a26.37,26.37,0,0,1,6.437,17.563A27.658,27.658,0,0,1,374.311,341.484Z" transform="translate(-213.212 -184.474)" fill="#fff"/>
      <path id="Path_63236" data-name="Path 63236" d="M365.895,210.905A127.083,127.083,0,1,0,492.978,337.988,127.085,127.085,0,0,0,365.895,210.905Zm-.978,231.018A103.935,103.935,0,1,1,468.852,337.988,104.05,104.05,0,0,1,364.917,441.923Z" transform="translate(-238.804 -210.905)" fill="#fff"/>
    </g>
  </g>
</svg>
