<svg xmlns="http://www.w3.org/2000/svg" xmlns:xlink="http://www.w3.org/1999/xlink" width="447.901" height="437.132" viewBox="0 0 447.901 437.132">
  <defs>
    <linearGradient id="linear-gradient" y1="0.5" x2="1" y2="0.5" gradientUnits="objectBoundingBox">
      <stop offset="0" stop-color="#105df3"/>
      <stop offset="1" stop-color="#105df3" stop-opacity="0.059"/>
    </linearGradient>
    <linearGradient id="linear-gradient-2" x1="0.5" x2="0.5" y2="1" gradientUnits="objectBoundingBox">
      <stop offset="0" stop-color="#105df3"/>
      <stop offset="1" stop-color="#105df3" stop-opacity="0"/>
    </linearGradient>
  </defs>
  <g id="Group_34302" data-name="Group 34302" transform="translate(-20.923 -464.466)">
    <g id="Group_34289" data-name="Group 34289" transform="translate(20.923 690.604)">
      <circle id="Ellipse_1861" data-name="Ellipse 1861" cx="93.633" cy="93.633" r="93.633" fill="url(#linear-gradient)"/>
      <circle id="Ellipse_1862" data-name="Ellipse 1862" cx="63.113" cy="63.113" r="63.113" transform="translate(30.52 30.52)" fill="#105df3"/>
    </g>
    <g id="Group_34290" data-name="Group 34290" transform="translate(276.785 536.065)">
      <circle id="Ellipse_1863" data-name="Ellipse 1863" cx="93.633" cy="93.633" r="93.633" fill="url(#linear-gradient-2)"/>
      <circle id="Ellipse_1864" data-name="Ellipse 1864" cx="63.113" cy="63.113" r="63.113" transform="translate(30.52 30.52)" fill="#105df3"/>
    </g>
    <path id="Path_63181" data-name="Path 63181" d="M160,0A160,160,0,1,1,0,160,160,160,0,0,1,160,0Z" transform="translate(31.693 741.597) rotate(-60)" fill="url(#linear-gradient-2)"/>
    <g id="Group_34293" data-name="Group 34293" transform="translate(69.773 523.03)">
      <path id="Path_63123" data-name="Path 63123" d="M229.77,583.458l-85.3,57.925a7.674,7.674,0,1,1-8.373-12.862l21.868-14.849a7.777,7.777,0,0,0,1.86-.86l96.6-65.6a7.674,7.674,0,1,0-8.373-12.862l-58.148,39.488q-3.831-.246-7.725-.252A119.513,119.513,0,0,0,121.4,796.015L77.727,825.676A7.672,7.672,0,0,0,86.1,838.535l51.09-34.695c.291.119.58.251.873.368l92.43-62.766a7.673,7.673,0,1,1,8.373,12.859l-81.952,55.649A119.538,119.538,0,0,0,229.77,583.458Z" transform="translate(-1.072 -533.117)" fill="#105df3"/>
      <path id="Path_63124" data-name="Path 63124" d="M289.265,577.357,176.522,650.068,141.075,609.7l-75.7,51.529A119.049,119.049,0,0,0,75.438,682.2L137.2,640.16l35.116,40,123.287-79.51A118.619,118.619,0,0,0,289.265,577.357Z" transform="translate(3.408 -460.278)" fill="#163e8b"/>
      <g id="Group_34291" data-name="Group 34291" transform="translate(36.455 39.286)">
        <path id="Path_63125" data-name="Path 63125" d="M60.679,710.272a.626.626,0,0,1-.627-.624V592.755a.626.626,0,0,1,1.252,0V709.648A.624.624,0,0,1,60.679,710.272Z" transform="translate(-41.805 -475.242)" fill="#fff"/>
        <path id="Path_63126" data-name="Path 63126" d="M76.522,731.474a.626.626,0,0,1-.627-.625V548.589a.626.626,0,1,1,1.252,0V730.85A.624.624,0,0,1,76.522,731.474Z" transform="translate(-15.72 -547.962)" fill="#fff"/>
        <path id="Path_63127" data-name="Path 63127" d="M92.365,710.065a.625.625,0,0,1-.627-.625V548.589a.626.626,0,1,1,1.252,0V709.44A.624.624,0,0,1,92.365,710.065Z" transform="translate(10.364 -547.962)" fill="#fff"/>
        <path id="Path_63128" data-name="Path 63128" d="M108.208,731.459a.625.625,0,0,1-.627-.624V579.889a.626.626,0,1,1,1.252,0V730.834A.624.624,0,0,1,108.208,731.459Z" transform="translate(36.449 -496.428)" fill="#fff"/>
        <path id="Path_63129" data-name="Path 63129" d="M124.051,687.115a.625.625,0,0,1-.627-.625v-137.9a.626.626,0,1,1,1.252,0v137.9A.624.624,0,0,1,124.051,687.115Z" transform="translate(62.534 -547.962)" fill="#fff"/>
        <path id="Path_63130" data-name="Path 63130" d="M139.894,659.375a.627.627,0,0,1-.627-.627V548.589a.626.626,0,1,1,1.252,0V658.747A.626.626,0,0,1,139.894,659.375Z" transform="translate(88.618 -547.962)" fill="#fff"/>
        <path id="Path_63131" data-name="Path 63131" d="M155.737,620.594a.627.627,0,0,1-.627-.627V548.589a.626.626,0,1,1,1.252,0v71.377A.626.626,0,0,1,155.737,620.594Z" transform="translate(114.703 -547.962)" fill="#fff"/>
        <path id="Path_63132" data-name="Path 63132" d="M346.465,627.6H53.782a.626.626,0,0,1,0-1.252H346.465a.626.626,0,1,1,0,1.252Z" transform="translate(-53.157 -418.909)" fill="#fff"/>
        <path id="Path_63133" data-name="Path 63133" d="M76.522,625.2a.629.629,0,0,1-.627-.627v-5.153a.626.626,0,1,1,1.252,0v5.153A.626.626,0,0,1,76.522,625.2Z" transform="translate(-15.72 -431.341)" fill="#fff"/>
        <path id="Path_63134" data-name="Path 63134" d="M92.31,622.58a.624.624,0,0,1-.625-.627V618.4a.626.626,0,1,1,1.252,0v3.557A.627.627,0,0,1,92.31,622.58Z" transform="translate(10.277 -433.029)" fill="#fff"/>
        <path id="Path_63135" data-name="Path 63135" d="M92.31,632.191a.624.624,0,0,1-.625-.624v-3.554a.626.626,0,1,1,1.252,0v3.554A.626.626,0,0,1,92.31,632.191Z" transform="translate(10.277 -417.197)" fill="#fff"/>
        <path id="Path_63136" data-name="Path 63136" d="M92.31,633.7a.624.624,0,0,1-.625-.625V621.036a.626.626,0,0,1,1.252,0V633.08A.626.626,0,0,1,92.31,633.7Z" transform="translate(10.277 -428.679)" fill="#fff"/>
        <path id="Path_63137" data-name="Path 63137" d="M92.31,645.188a.625.625,0,0,1-.625-.627V630.931a.626.626,0,1,1,1.252,0V644.56A.627.627,0,0,1,92.31,645.188Z" transform="translate(10.277 -412.391)" fill="#fff"/>
        <path id="Path_63138" data-name="Path 63138" d="M92.365,617.416a.625.625,0,0,1-.627-.625v-5.155a.626.626,0,0,1,1.252,0v5.155A.624.624,0,0,1,92.365,617.416Z" transform="translate(10.364 -444.155)" fill="#fff"/>
        <path id="Path_63139" data-name="Path 63139" d="M92.365,620.492a.625.625,0,0,1-.627-.627v-5.147a.626.626,0,0,1,1.252,0v5.147A.625.625,0,0,1,92.365,620.492Z" transform="translate(10.364 -439.081)" fill="#fff"/>
        <path id="Path_63140" data-name="Path 63140" d="M108.208,582.805a.625.625,0,0,1-.627-.625v-5.15a.626.626,0,0,1,1.252,0v5.15A.624.624,0,0,1,108.208,582.805Z" transform="translate(36.449 -501.131)" fill="#fff"/>
        <path id="Path_63141" data-name="Path 63141" d="M124.051,608.16a.625.625,0,0,1-.627-.625v-5.15a.626.626,0,0,1,1.252,0v5.15A.624.624,0,0,1,124.051,608.16Z" transform="translate(62.534 -459.385)" fill="#fff"/>
        <path id="Path_63142" data-name="Path 63142" d="M139.894,608.16a.625.625,0,0,1-.627-.625v-5.15a.626.626,0,0,1,1.252,0v5.15A.624.624,0,0,1,139.894,608.16Z" transform="translate(88.618 -459.385)" fill="#fff"/>
        <path id="Path_63143" data-name="Path 63143" d="M139.894,624.206a.625.625,0,0,1-.627-.625V608.4a.626.626,0,0,1,1.252,0v15.177A.624.624,0,0,1,139.894,624.206Z" transform="translate(88.618 -449.475)" fill="#fff"/>
        <path id="Path_63144" data-name="Path 63144" d="M139.894,597.56a.624.624,0,0,1-.627-.624v-5.153a.626.626,0,1,1,1.252,0v5.153A.624.624,0,0,1,139.894,597.56Z" transform="translate(88.618 -476.846)" fill="#fff"/>
        <path id="Path_63145" data-name="Path 63145" d="M155.737,597.56a.624.624,0,0,1-.627-.624v-5.153a.626.626,0,1,1,1.252,0v5.153A.624.624,0,0,1,155.737,597.56Z" transform="translate(114.703 -476.846)" fill="#fff"/>
        <path id="Path_63146" data-name="Path 63146" d="M155.737,610.641a.627.627,0,0,1-.627-.627v-5.153a.626.626,0,1,1,1.252,0v5.153A.626.626,0,0,1,155.737,610.641Z" transform="translate(114.703 -455.313)" fill="#fff"/>
        <path id="Path_63147" data-name="Path 63147" d="M155.737,649.738a.625.625,0,0,1-.627-.627V628.474a.626.626,0,0,1,1.252,0v20.637A.625.625,0,0,1,155.737,649.738Z" transform="translate(114.703 -416.433)" fill="#fff"/>
        <path id="Path_63148" data-name="Path 63148" d="M155.737,628.652a.627.627,0,0,1-.627-.627v-5.153a.626.626,0,1,1,1.252,0v5.153A.626.626,0,0,1,155.737,628.652Z" transform="translate(114.703 -425.659)" fill="#fff"/>
        <path id="Path_63149" data-name="Path 63149" d="M155.737,615.893a.625.625,0,0,1-.627-.625V595.716a.626.626,0,1,1,1.252,0v19.552A.624.624,0,0,1,155.737,615.893Z" transform="translate(114.703 -470.37)" fill="#fff"/>
        <path id="Path_63150" data-name="Path 63150" d="M155.737,641.636a.625.625,0,0,1-.627-.625V608.492a.626.626,0,0,1,1.252,0v32.519A.624.624,0,0,1,155.737,641.636Z" transform="translate(114.703 -449.332)" fill="#fff"/>
        <path id="Path_63151" data-name="Path 63151" d="M155.737,591.5a.627.627,0,0,1-.627-.627V577.626a.626.626,0,1,1,1.252,0v13.243A.626.626,0,0,1,155.737,591.5Z" transform="translate(114.703 -500.154)" fill="#fff"/>
        <path id="Path_63152" data-name="Path 63152" d="M155.737,598.372a.625.625,0,0,1-.627-.625V584.5a.626.626,0,1,1,1.252,0v13.245A.624.624,0,0,1,155.737,598.372Z" transform="translate(114.703 -488.833)" fill="#fff"/>
        <path id="Path_63153" data-name="Path 63153" d="M139.882,609.587a.627.627,0,0,1-.627-.627V605.5a.626.626,0,0,1,1.252,0v3.462A.626.626,0,0,1,139.882,609.587Z" transform="translate(88.598 -454.26)" fill="#fff"/>
        <path id="Path_63154" data-name="Path 63154" d="M139.882,639.334a.627.627,0,0,1-.627-.627V617.982a.626.626,0,1,1,1.252,0v20.724A.626.626,0,0,1,139.882,639.334Z" transform="translate(88.598 -433.71)" fill="#fff"/>
        <path id="Path_63155" data-name="Path 63155" d="M139.882,619.038a.625.625,0,0,1-.627-.625v-3.461a.626.626,0,1,1,1.252,0v3.461A.624.624,0,0,1,139.882,619.038Z" transform="translate(88.598 -438.699)" fill="#fff"/>
        <path id="Path_63156" data-name="Path 63156" d="M139.882,650.351a.627.627,0,0,1-.627-.627v-21.6a.626.626,0,1,1,1.252,0v21.6A.626.626,0,0,1,139.882,650.351Z" transform="translate(88.598 -417.006)" fill="#fff"/>
        <path id="Path_63157" data-name="Path 63157" d="M139.894,609.87a.625.625,0,0,1-.627-.627v-14.28a.626.626,0,0,1,1.252,0v14.28A.624.624,0,0,1,139.894,609.87Z" transform="translate(88.618 -471.607)" fill="#fff"/>
        <path id="Path_63158" data-name="Path 63158" d="M108.208,572.253a.627.627,0,0,1-.627-.627v-5.147a.626.626,0,1,1,1.252,0v5.147A.626.626,0,0,1,108.208,572.253Z" transform="translate(36.449 -518.509)" fill="#fff"/>
        <path id="Path_63159" data-name="Path 63159" d="M124.051,616.015a.625.625,0,0,1-.627-.625v-5.147a.626.626,0,1,1,1.252,0v5.147A.624.624,0,0,1,124.051,616.015Z" transform="translate(62.534 -446.452)" fill="#fff"/>
        <path id="Path_63160" data-name="Path 63160" d="M124.051,642.679a.624.624,0,0,1-.627-.624V627.709a.626.626,0,0,1,1.252,0v14.346A.624.624,0,0,1,124.051,642.679Z" transform="translate(62.534 -417.692)" fill="#fff"/>
        <path id="Path_63161" data-name="Path 63161" d="M124.051,612.236a.627.627,0,0,1-.627-.627v-5.147a.626.626,0,1,1,1.252,0v5.147A.626.626,0,0,1,124.051,612.236Z" transform="translate(62.534 -452.679)" fill="#fff"/>
        <path id="Path_63162" data-name="Path 63162" d="M124.051,628.115a.627.627,0,0,1-.627-.627V622.34a.626.626,0,1,1,1.252,0v5.147A.626.626,0,0,1,124.051,628.115Z" transform="translate(62.534 -426.535)" fill="#fff"/>
        <path id="Path_63163" data-name="Path 63163" d="M124.051,640.1a.625.625,0,0,1-.627-.627v-5.148a.626.626,0,0,1,1.252,0v5.148A.625.625,0,0,1,124.051,640.1Z" transform="translate(62.534 -406.796)" fill="#fff"/>
        <path id="Path_63164" data-name="Path 63164" d="M124.051,633.254a.625.625,0,0,1-.627-.625V613.585a.626.626,0,1,1,1.252,0v19.044A.624.624,0,0,1,124.051,633.254Z" transform="translate(62.534 -440.95)" fill="#fff"/>
        <path id="Path_63165" data-name="Path 63165" d="M108.208,560.288a.625.625,0,0,1-.627-.625v-5.147a.626.626,0,1,1,1.252,0v5.147A.624.624,0,0,1,108.208,560.288Z" transform="translate(36.449 -538.204)" fill="#fff"/>
        <path id="Path_63166" data-name="Path 63166" d="M108.208,561.258a.627.627,0,0,1-.627-.627V548.589a.626.626,0,1,1,1.252,0v12.042A.626.626,0,0,1,108.208,561.258Z" transform="translate(36.449 -547.962)" fill="#fff"/>
        <path id="Path_63167" data-name="Path 63167" d="M108.208,577.969a.625.625,0,0,1-.627-.627V557.708a.626.626,0,1,1,1.252,0v19.634A.625.625,0,0,1,108.208,577.969Z" transform="translate(36.449 -532.948)" fill="#fff"/>
        <path id="Path_63168" data-name="Path 63168" d="M108.208,586.282a.627.627,0,0,1-.627-.627V569.427a.626.626,0,0,1,1.252,0v16.228A.626.626,0,0,1,108.208,586.282Z" transform="translate(36.449 -513.65)" fill="#fff"/>
        <path id="Path_63169" data-name="Path 63169" d="M76.522,629.086a.626.626,0,0,1-.627-.624v-5.15a.626.626,0,0,1,1.252,0v5.15A.624.624,0,0,1,76.522,629.086Z" transform="translate(-15.72 -424.932)" fill="#fff"/>
        <path id="Path_63170" data-name="Path 63170" d="M76.522,634.457a.627.627,0,0,1-.627-.627v-5.147a.626.626,0,0,1,1.252,0v5.147A.625.625,0,0,1,76.522,634.457Z" transform="translate(-15.72 -416.089)" fill="#fff"/>
        <path id="Path_63171" data-name="Path 63171" d="M76.522,642.481a.627.627,0,0,1-.627-.627v-9.279a.626.626,0,1,1,1.252,0v9.279A.625.625,0,0,1,76.522,642.481Z" transform="translate(-15.72 -409.684)" fill="#fff"/>
        <path id="Path_63172" data-name="Path 63172" d="M60.679,597.737a.626.626,0,0,1-.627-.625v-9.276a.626.626,0,0,1,1.252,0v9.276A.624.624,0,0,1,60.679,597.737Z" transform="translate(-41.805 -483.339)" fill="#fff"/>
        <path id="Path_63173" data-name="Path 63173" d="M60.679,571.013a.626.626,0,0,1-.627-.624v-9.281a.626.626,0,0,1,1.252,0v9.281A.624.624,0,0,1,60.679,571.013Z" transform="translate(-41.805 -527.347)" fill="#fff"/>
        <path id="Path_63174" data-name="Path 63174" d="M60.668,573.64a.625.625,0,0,1-.627-.627v-6.174a.626.626,0,0,1,1.252,0v6.174A.625.625,0,0,1,60.668,573.64Z" transform="translate(-41.823 -517.911)" fill="#fff"/>
        <path id="Path_63175" data-name="Path 63175" d="M60.679,588.98a.626.626,0,0,1-.627-.625v-17.93a.626.626,0,1,1,1.252,0v17.93A.624.624,0,0,1,60.679,588.98Z" transform="translate(-41.805 -512.009)" fill="#fff"/>
        <path id="Path_63176" data-name="Path 63176" d="M60.679,597.771a.626.626,0,0,1-.627-.625V579.222a.626.626,0,1,1,1.252,0v17.924A.624.624,0,0,1,60.679,597.771Z" transform="translate(-41.805 -497.527)" fill="#fff"/>
        <path id="Path_63177" data-name="Path 63177" d="M60.679,575.162a.627.627,0,0,1-.627-.627V548.589a.626.626,0,1,1,1.252,0v25.946A.625.625,0,0,1,60.679,575.162Z" transform="translate(-41.805 -547.962)" fill="#fff"/>
      </g>
      <circle id="Ellipse_1866" data-name="Ellipse 1866" cx="17.396" cy="17.396" r="17.396" transform="translate(350.528 239.811)" fill="#105df3"/>
      <circle id="Ellipse_1867" data-name="Ellipse 1867" cx="11.148" cy="11.148" r="11.148" transform="translate(14.179 16.643)" fill="#105df3"/>
      <path id="Path_63180" data-name="Path 63180" d="M22.553,0A22.553,22.553,0,1,1,0,22.553,22.553,22.553,0,0,1,22.553,0Z" transform="translate(125.696 288.026)" fill="#105df3"/>
      <g id="Group_34292" data-name="Group 34292" transform="translate(0 51.008)">
        <path id="Path_63178" data-name="Path 63178" d="M50.9,750.423a11.5,11.5,0,0,1-6.484-21.013l139.452-97.2,35.446,40.372L395.342,559.2a11.5,11.5,0,0,1,12.467,19.335L215.111,702.67l-35.118-40L57.36,748.43A11.448,11.448,0,0,1,50.9,750.423Z" transform="translate(-39.382 -544.202)" fill="#fff"/>
        <path id="Path_63179" data-name="Path 63179" d="M235.842,588.454a11.855,11.855,0,0,1-1.776-.135L149.8,575.259a11.5,11.5,0,1,1,3.52-22.736l84.268,13.06a11.5,11.5,0,0,1-1.744,22.871Z" transform="translate(126.366 -552.391)" fill="#fff"/>
      </g>
    </g>
  </g>
</svg>
