<svg xmlns="http://www.w3.org/2000/svg" xmlns:xlink="http://www.w3.org/1999/xlink" width="328" height="454.847" viewBox="0 0 328 454.847">
  <defs>
    <linearGradient id="linear-gradient" y1="0.5" x2="1" y2="0.5" gradientUnits="objectBoundingBox">
      <stop offset="0" stop-color="#32ab7b"/>
      <stop offset="1" stop-color="#32ab7b" stop-opacity="0"/>
    </linearGradient>
  </defs>
  <g id="Group_34301" data-name="Group 34301" transform="translate(114.218 173.696)">
    <path id="Path_63186" data-name="Path 63186" d="M18.855-138.791v54.823a5.945,5.945,0,0,1-5.946,5.946,5.941,5.941,0,0,1-5.946-5.946v-60.609a73.958,73.958,0,0,0-26.347-4.9A74.293,74.293,0,0,0-93.675-75.185,74.293,74.293,0,0,0-19.384-.894,74.293,74.293,0,0,0,54.907-75.185,74.174,74.174,0,0,0,18.855-138.791Z" transform="translate(101.608 119.794)" fill="#32ab7b"/>
    <path id="Path_63187" data-name="Path 63187" d="M66.487-153.445V-36.336a5.945,5.945,0,0,1-5.946,5.946,5.941,5.941,0,0,1-5.946-5.946V-155.11a5.561,5.561,0,0,1,.262-1.3,132.076,132.076,0,0,0-26.609-2.694A131.55,131.55,0,0,0-103.3-27.554,130.9,130.9,0,0,0-79.8,47.462V-9.829a5.945,5.945,0,0,1,5.946-5.946,5.945,5.945,0,0,1,5.946,5.946V62.185A131.161,131.161,0,0,0,28.247,104,131.555,131.555,0,0,0,159.805-27.554,131.6,131.6,0,0,0,66.487-153.445Z" transform="translate(53.977 72.163)" fill="url(#linear-gradient)"/>
    <path id="Path_63188" data-name="Path 63188" d="M-29.626-134.783A78.459,78.459,0,0,0-97.352-95.9v79.351A78.459,78.459,0,0,0-29.626,22.343a78.562,78.562,0,0,0,78.56-78.56A78.567,78.567,0,0,0-29.626-134.783Z" transform="translate(83.421 192.467)" fill="url(#linear-gradient)"/>
    <path id="Path_63189" data-name="Path 63189" d="M-35.378-150.551a78.836,78.836,0,0,0-78.84,78.834,78.838,78.838,0,0,0,78.84,78.84,79.188,79.188,0,0,0,9.555-.636V-52.143a5.945,5.945,0,0,1,5.946-5.946,5.945,5.945,0,0,1,5.946,5.946V4.09A78.806,78.806,0,0,0,43.455-71.717,78.835,78.835,0,0,0-35.378-150.551Z" transform="translate(0 114.477)" fill="url(#linear-gradient)"/>
    <path id="Path_63190" data-name="Path 63190" d="M-68.8-35.706a5.941,5.941,0,0,1-5.946-5.946V-160.426a5.944,5.944,0,0,1,5.946-5.946,5.948,5.948,0,0,1,5.946,5.946V-41.652A5.944,5.944,0,0,1-68.8-35.706Z" transform="translate(195.214 36.224)" fill="#32ab7b"/>
    <path id="Path_63191" data-name="Path 63191" d="M-95.406,11.485a5.945,5.945,0,0,1-5.946-5.946V-113.229a5.945,5.945,0,0,1,5.946-5.946,5.945,5.945,0,0,1,5.946,5.946V5.539A5.945,5.945,0,0,1-95.406,11.485Z" transform="translate(63.637 269.666)" fill="#32ab7b"/>
    <path id="Path_63192" data-name="Path 63192" d="M-98.15-37.754A5.948,5.948,0,0,1-104.1-43.7V-162.474a5.944,5.944,0,0,1,5.946-5.946,5.944,5.944,0,0,1,5.946,5.946V-43.7A5.948,5.948,0,0,1-98.15-37.754Z" transform="translate(50.065 26.094)" fill="#32ab7b"/>
    <path id="Path_63193" data-name="Path 63193" d="M-68.8,3.275A5.944,5.944,0,0,1-74.75-2.671V-121.445a5.941,5.941,0,0,1,5.946-5.946,5.944,5.944,0,0,1,5.946,5.946V-2.671A5.948,5.948,0,0,1-68.8,3.275Z" transform="translate(195.214 229.029)" fill="#32ab7b"/>
    <circle id="Ellipse_1871" data-name="Ellipse 1871" cx="82.556" cy="82.556" r="82.556" transform="translate(-32.757 -173.696)" fill="url(#linear-gradient)"/>
    <circle id="Ellipse_1872" data-name="Ellipse 1872" cx="63.73" cy="63.73" r="63.73" transform="translate(-13.931 -154.87)" fill="#32ab7b"/>
    <circle id="Ellipse_1873" data-name="Ellipse 1873" cx="52.535" cy="52.535" r="52.535" transform="translate(1.258 83.713)" fill="#32ab7b"/>
    <circle id="Ellipse_1874" data-name="Ellipse 1874" cx="13.865" cy="13.865" r="13.865" transform="translate(152.246 -114.677)" fill="#32ab7b"/>
    <circle id="Ellipse_1875" data-name="Ellipse 1875" cx="13.865" cy="13.865" r="13.865" transform="translate(-91.321 146.687)" fill="#32ab7b"/>
    <path id="Path_63194" data-name="Path 63194" d="M-82.863-130.259c-.375,3.175-.708,6.4-.963,9.728.1.042.178.089.274.125-.1-.012-.184-.036-.279-.054-.446,5.851-.761,11.851-.761,18.165,0,22.958,6.113,46.832,12.719,65.948l17.327,46.737L-80.36-24.661C-87.305-14.149-92.835-2.613-92.835,7.59v7.938a101.71,101.71,0,0,0,16.9,15.008,62.452,62.452,0,0,1,29.909-12.85C-19.2,21.368-4.047,41.662-.218,47.459c.333-.059.672-.1,1-.155V7.59c0-14.176-10.614-30.944-20.96-43.936,6.606-19.117,12.719-42.991,12.719-65.948a228.258,228.258,0,0,0-5.762-51.547c-1.463-.065-2.9-.22-4.376-.22A101.1,101.1,0,0,0-82.863-130.259Z" transform="translate(105.763 97.116)" fill="#2d996f"/>
    <path id="Path_63195" data-name="Path 63195" d="M-21.173,22.672C-14.567,3.555-8.455-20.319-8.455-43.277c0-79.785-38.567-122.716-38.567-122.716s-19.218,21.62-30.51,62.411c36.069-8.128,59.776,6.868,59.776,6.868s-35.463-8.348-62.315,2.967a225.591,225.591,0,0,0-4.757,32.234c.1.042.178.089.274.125-.1-.012-.184-.036-.279-.054-.446,5.851-.755,11.851-.755,18.165,0,22.958,6.107,46.832,12.713,65.948l17.327,46.737L-81.36,34.356C-88.305,44.869-93.835,56.4-93.835,66.614v41.45S-78.369,81.009-47.021,76.7c31.342,4.3,46.808,31.36,46.808,31.36V66.614C-.213,52.432-10.827,35.664-21.173,22.672Z" transform="translate(100.817 38.099)" fill="#fff"/>
    <path id="Path_63196" data-name="Path 63196" d="M-91.395,5.1A5.945,5.945,0,0,1-97.341-.849V-119.617a5.945,5.945,0,0,1,5.946-5.946,5.945,5.945,0,0,1,5.946,5.946V-.849A5.945,5.945,0,0,1-91.395,5.1Z" transform="translate(83.476 206.742)" fill="#32ab7b"/>
  </g>
</svg>
