<svg id="Group_34150" data-name="Group 34150" xmlns="http://www.w3.org/2000/svg" width="231.307" height="75.659" viewBox="0 0 231.307 75.659">
  <path id="Path_59458" data-name="Path 59458" d="M231.307,65.435a10.221,10.221,0,0,1-10.224,10.224H10.224A10.221,10.221,0,0,1,0,65.435V10.224A10.227,10.227,0,0,1,10.224,0H221.083a10.227,10.227,0,0,1,10.224,10.224Z" transform="translate(0 0)"/>
  <g id="Group_29019" data-name="Group 29019" transform="translate(15.518 11.762)">
    <path id="Path_59459" data-name="Path 59459" d="M79.8,80.109a37.254,37.254,0,0,1-3.387,6.322c-2.2,3.347-5.3,7.519-9.142,7.555-3.414.031-4.292-2.221-8.925-2.195s-5.6,2.235-9.014,2.2c-3.84-.035-6.779-3.8-8.978-7.151-6.154-9.364-6.792-20.355-3-26.194C40.05,56.5,44.3,54.07,48.3,54.07c4.07,0,6.633,2.235,10,2.235,3.268,0,5.258-2.235,9.962-2.235a13.283,13.283,0,0,1,10.016,5.289C69.476,64.179,70.908,76.748,79.8,80.109Z" transform="translate(-35 -41.86)" fill="#fff"/>
    <g id="Group_29018" data-name="Group 29018" transform="translate(21.528)">
      <path id="Path_59460" data-name="Path 59460" d="M91.72,34.994a11.406,11.406,0,0,0,2.536-8.464,12.34,12.34,0,0,0-7.972,4.287c-1.734,2.106-3.161,5.223-2.607,8.255A10.406,10.406,0,0,0,91.72,34.994Z" transform="translate(-83.556 -26.53)" fill="#fff"/>
    </g>
  </g>
  <g id="Group_29022" data-name="Group 29022" transform="translate(70.242 11.873)">
    <g id="Group_29020" data-name="Group 29020" transform="translate(0.004 18.125)">
      <path id="Path_59461" data-name="Path 59461" d="M167.254,68.59,158.44,94.527h4.035l2.629-7.963h8.53l2.7,7.963h4.145l-8.85-25.937Zm2.088,4.265c.3,1.157.621,2.359,1.033,3.658l2.376,6.877h-6.757l2.341-6.921C168.691,75.347,169.028,74.136,169.342,72.855Z" transform="translate(-158.44 -68.178)" fill="#fff"/>
      <path id="Path_59462" data-name="Path 59462" d="M221.355,83.76a7.342,7.342,0,0,0-6.238,2.993l-.155-2.58H211.37l.022.328c.106,1.6.151,3.378.151,5.914v19.991h3.924v-9.328a6.888,6.888,0,0,0,5.365,2.305,8.1,8.1,0,0,0,5.946-2.527,10.723,10.723,0,0,0,2.625-7.55,10.457,10.457,0,0,0-2.279-6.894A7.476,7.476,0,0,0,221.355,83.76Zm-.975,3.25c3.5,0,5.063,3.241,5.063,6.451,0,4.141-2,6.717-5.214,6.717a4.762,4.762,0,0,1-4.624-3.64,4.913,4.913,0,0,1-.137-1.272V92.108a5.721,5.721,0,0,1,.124-.967c.018-.106.04-.213.058-.319A4.967,4.967,0,0,1,220.379,87.01Z" transform="translate(-187.903 -76.622)" fill="#fff"/>
      <path id="Path_59463" data-name="Path 59463" d="M266.94,83.76a7.342,7.342,0,0,0-6.238,2.993l-.155-2.58H256.96l.018.328c.106,1.609.151,3.378.151,5.914v19.991h3.924v-9.328a6.888,6.888,0,0,0,5.365,2.305,8.115,8.115,0,0,0,5.95-2.527,10.743,10.743,0,0,0,2.625-7.55,10.436,10.436,0,0,0-2.283-6.894A7.476,7.476,0,0,0,266.94,83.76Zm-.975,3.25c3.5,0,5.063,3.241,5.063,6.451,0,4.141-2,6.717-5.214,6.717a4.758,4.758,0,0,1-4.624-3.64,4.914,4.914,0,0,1-.137-1.272V92.108a5.77,5.77,0,0,1,.124-.971c.018-.106.04-.213.058-.315A4.967,4.967,0,0,1,265.965,87.01Z" transform="translate(-213.28 -76.622)" fill="#fff"/>
      <path id="Path_59464" data-name="Path 59464" d="M324.852,79.063c-3.662-1.419-4.837-2.532-4.837-4.593,0-1.734,1.379-3.485,4.46-3.485a8.9,8.9,0,0,1,4.607,1.157l.333.2,1.108-3.276-.217-.129a11.37,11.37,0,0,0-5.715-1.281c-5.006,0-8.5,2.953-8.5,7.182,0,3.409,2.19,5.795,6.89,7.5,3.33,1.246,4.571,2.518,4.571,4.7,0,2.474-1.911,4.008-4.988,4.008a10.744,10.744,0,0,1-5.657-1.6l-.341-.217-1.055,3.352.2.129a13.443,13.443,0,0,0,6.633,1.707c6.744,0,9.138-4.114,9.138-7.635C331.471,83.16,329.551,80.921,324.852,79.063Z" transform="translate(-245.871 -67.66)" fill="#fff"/>
      <path id="Path_59465" data-name="Path 59465" d="M359.068,74.61l-3.848,1.21v3.259H352.4v3.135h2.82v9.608c0,2.323.443,3.95,1.357,4.979a5.028,5.028,0,0,0,3.8,1.49,9.161,9.161,0,0,0,3.033-.47l.222-.08L363.44,94.6l-.377.115a5.966,5.966,0,0,1-1.827.213c-1.521,0-2.168-.962-2.168-3.219V82.218H363.8V79.083h-4.735Z" transform="translate(-266.405 -71.529)" fill="#fff"/>
      <path id="Path_59466" data-name="Path 59466" d="M388.344,83.76c-5.489,0-9.324,4.1-9.324,9.962,0,5.688,3.711,9.665,9.027,9.665h.035c4.491,0,9.324-3.13,9.324-10a9.931,9.931,0,0,0-2.5-6.943A8.744,8.744,0,0,0,388.344,83.76Zm-.111,3.1c3.529,0,5.139,3.44,5.139,6.642,0,3.933-2.195,6.788-5.214,6.788h-.04c-2.975,0-5.139-2.806-5.139-6.677C382.984,90.251,384.606,86.859,388.233,86.859Z" transform="translate(-281.223 -76.622)" fill="#fff"/>
      <path id="Path_59467" data-name="Path 59467" d="M435.337,83.942l-.235-.058a3.872,3.872,0,0,0-.975-.124,5.6,5.6,0,0,0-4.921,3.161l-.115-2.744h-3.52l.022.328c.106,1.552.146,3.3.146,5.653L425.7,102.98h3.924v-10a10.108,10.108,0,0,1,.106-1.521c.443-2.4,2.062-3.955,4.128-3.955a9.4,9.4,0,0,1,1.055.067l.421.044Z" transform="translate(-307.134 -76.622)" fill="#fff"/>
      <path id="Path_59468" data-name="Path 59468" d="M456.362,83.68c-5.223,0-8.872,4.172-8.872,10.153,0,5.755,3.631,9.475,9.249,9.475a15.01,15.01,0,0,0,6.211-1.193l.235-.106-.754-2.926-.328.133a12.17,12.17,0,0,1-4.917.878c-1.707,0-5.635-.563-5.879-5.688l12.667.04.053-.253a8.685,8.685,0,0,0,.12-1.636C464.147,88.459,462.108,83.68,456.362,83.68Zm-.262,2.984a3.866,3.866,0,0,1,2.882,1.1,5.587,5.587,0,0,1,1.352,3.653h-8.952C451.751,89.151,453.165,86.664,456.1,86.664Z" transform="translate(-319.336 -76.577)" fill="#fff"/>
    </g>
    <g id="Group_29021" data-name="Group 29021">
      <path id="Path_59469" data-name="Path 59469" d="M158.434,28.313a28.485,28.485,0,0,1,3.764-.253c2.532,0,4.332.51,5.524,1.512A5.374,5.374,0,0,1,169.665,34a6.211,6.211,0,0,1-1.964,4.771c-1.295,1.148-3.4,1.769-6.052,1.769a27.035,27.035,0,0,1-3.219-.146V28.313Zm1.782,10.876a13.009,13.009,0,0,0,1.782.071c3.764.018,5.808-1.893,5.808-5.209.022-2.931-1.8-4.735-5.524-4.735a11.332,11.332,0,0,0-2.066.164Z" transform="translate(-158.43 -27.493)" fill="#fff"/>
      <path id="Path_59470" data-name="Path 59470" d="M192.115,44.827a4.423,4.423,0,0,1-4.7-4.536,4.545,4.545,0,0,1,4.855-4.682,4.391,4.391,0,0,1,4.717,4.518,4.566,4.566,0,0,1-4.855,4.7Zm.062-1.2c1.7,0,2.975-1.441,2.975-3.44,0-1.494-.829-3.37-2.935-3.37-2.084,0-3,1.747-3,3.423,0,1.929,1.215,3.387,2.935,3.387h.022Z" transform="translate(-174.567 -31.695)" fill="#fff"/>
      <path id="Path_59471" data-name="Path 59471" d="M213.088,36.07l1.317,4.465c.262.984.528,1.911.709,2.824h.062c.222-.891.545-1.84.869-2.806l1.6-4.482h1.5l1.516,4.407c.364,1.037.647,1.986.869,2.877h.062a24.8,24.8,0,0,1,.749-2.86l1.4-4.425h1.76l-3.157,8.814h-1.618l-1.5-4.207a27.5,27.5,0,0,1-.869-2.913h-.04a24.107,24.107,0,0,1-.891,2.931l-1.578,4.19h-1.618L211.27,36.07Z" transform="translate(-187.843 -31.951)" fill="#fff"/>
      <path id="Path_59472" data-name="Path 59472" d="M247.27,38.2c0-.931-.022-1.658-.08-2.385h1.578l.1,1.441h.04a3.711,3.711,0,0,1,3.237-1.64c1.357,0,3.463.727,3.463,3.751v5.263h-1.778V39.553c0-1.419-.59-2.62-2.266-2.62a2.542,2.542,0,0,0-2.39,1.64,2.188,2.188,0,0,0-.12.745v5.32h-1.782V38.2Z" transform="translate(-207.837 -31.701)" fill="#fff"/>
      <path id="Path_59473" data-name="Path 59473" d="M272.7,26.78h1.782V39.713H272.7Z" transform="translate(-222.037 -26.78)" fill="#fff"/>
      <path id="Path_59474" data-name="Path 59474" d="M286.485,44.827a4.425,4.425,0,0,1-4.7-4.536,4.547,4.547,0,0,1,4.859-4.682,4.389,4.389,0,0,1,4.713,4.518,4.567,4.567,0,0,1-4.859,4.7Zm.062-1.2c1.7,0,2.975-1.441,2.975-3.44,0-1.494-.829-3.37-2.935-3.37-2.084,0-3,1.747-3,3.423,0,1.929,1.215,3.387,2.935,3.387h.022Z" transform="translate(-227.097 -31.695)" fill="#fff"/>
      <path id="Path_59475" data-name="Path 59475" d="M314.385,42.519a13.2,13.2,0,0,0,.142,2.11h-1.6l-.164-1.108H312.7a3.771,3.771,0,0,1-3,1.312c-1.982,0-3-1.255-3-2.532,0-2.133,2.106-3.3,5.888-3.276v-.182c0-.727-.222-2.057-2.226-2.039a5.093,5.093,0,0,0-2.572.656l-.4-1.073a6.881,6.881,0,0,1,3.237-.767c3.015,0,3.742,1.84,3.742,3.6v3.294Zm-1.742-2.385c-1.942-.035-4.15.275-4.15,1.986a1.488,1.488,0,0,0,1.658,1.53,2.467,2.467,0,0,0,2.408-1.476,1.46,1.46,0,0,0,.08-.51v-1.53Z" transform="translate(-240.968 -31.701)" fill="#fff"/>
      <path id="Path_59476" data-name="Path 59476" d="M338.013,26.78V37.434c0,.785.022,1.676.08,2.279h-1.6l-.08-1.53h-.04a3.662,3.662,0,0,1-3.321,1.729,4.207,4.207,0,0,1-4.212-4.482,4.394,4.394,0,0,1,4.394-4.735,3.37,3.37,0,0,1,2.957,1.33h.04V26.78Zm-1.778,7.706a2.63,2.63,0,0,0-.08-.692,2.573,2.573,0,0,0-2.572-1.84c-1.84,0-2.935,1.459-2.935,3.387,0,1.8.993,3.276,2.9,3.276a2.652,2.652,0,0,0,2.611-1.911,2.467,2.467,0,0,0,.08-.692v-1.53Z" transform="translate(-253.286 -26.78)" fill="#fff"/>
      <path id="Path_59477" data-name="Path 59477" d="M368.975,44.827a4.425,4.425,0,0,1-4.7-4.536,4.549,4.549,0,0,1,4.859-4.682,4.391,4.391,0,0,1,4.717,4.518,4.566,4.566,0,0,1-4.855,4.7Zm.062-1.2c1.7,0,2.975-1.441,2.975-3.44,0-1.494-.829-3.37-2.935-3.37-2.084,0-3,1.747-3,3.423,0,1.929,1.215,3.387,2.935,3.387h.022Z" transform="translate(-273.014 -31.695)" fill="#fff"/>
      <path id="Path_59478" data-name="Path 59478" d="M390.84,38.2c0-.931-.022-1.658-.08-2.385h1.578l.1,1.441h.04a3.711,3.711,0,0,1,3.237-1.64c1.357,0,3.463.727,3.463,3.751v5.263H397.4V39.553c0-1.419-.585-2.62-2.266-2.62a2.542,2.542,0,0,0-2.39,1.64,2.189,2.189,0,0,0-.12.745v5.32H390.84Z" transform="translate(-287.753 -31.701)" fill="#fff"/>
      <path id="Path_59479" data-name="Path 59479" d="M426.7,31.3v2.11h2.549V34.63H426.7v4.753c0,1.091.346,1.711,1.335,1.711a3.6,3.6,0,0,0,1.033-.111l.08,1.219a5.317,5.317,0,0,1-1.578.217,2.71,2.71,0,0,1-1.924-.674,3.2,3.2,0,0,1-.687-2.314v-4.8H423.44V33.415h1.516V31.792Z" transform="translate(-305.944 -29.296)" fill="#fff"/>
      <path id="Path_59480" data-name="Path 59480" d="M441.054,26.78h1.782v5.5h.04a3.036,3.036,0,0,1,1.277-1.131,3.752,3.752,0,0,1,1.822-.457c1.312,0,3.418.727,3.418,3.769v5.245h-1.782V34.65c0-1.441-.585-2.625-2.266-2.625a2.56,2.56,0,0,0-2.39,1.6,1.754,1.754,0,0,0-.124.767v5.32H441.05V26.78Z" transform="translate(-315.747 -26.78)" fill="#fff"/>
      <path id="Path_59481" data-name="Path 59481" d="M466.515,40.469c.04,2.168,1.561,3.059,3.339,3.059a7.353,7.353,0,0,0,2.713-.439l.324,1.131a8.723,8.723,0,0,1-3.281.563c-3,0-4.819-1.8-4.819-4.442a4.486,4.486,0,0,1,4.615-4.771,3.858,3.858,0,0,1,4.026,4.154,3.77,3.77,0,0,1-.058.763Zm5.205-1.144a2.368,2.368,0,0,0-2.452-2.607,2.772,2.772,0,0,0-2.731,2.607Z" transform="translate(-328.961 -31.673)" fill="#fff"/>
    </g>
  </g>
</svg>
