<svg id="Group_34151" data-name="Group 34151" xmlns="http://www.w3.org/2000/svg" xmlns:xlink="http://www.w3.org/1999/xlink" width="231.307" height="75.662" viewBox="0 0 231.307 75.662">
  <defs>
    <clipPath id="clip-path">
      <path id="Path_59484" data-name="Path 59484" d="M71.138,51.913,60.709,45.889s-19-10.971-20.12-11.618-2.229-.253-2.229,1.094V82.691c0,1.008.8,1.447,1.764.886L60.7,71.693l10.428-6.019,10.026-5.789c1.176-.678,1.063-1.61.072-2.148S71.138,51.913,71.138,51.913Z" transform="translate(-38.36 -33.967)"/>
    </clipPath>
    <linearGradient id="linear-gradient" x1="0.5" x2="0.5" y2="1" gradientUnits="objectBoundingBox">
      <stop offset="0" stop-color="#257cb0"/>
      <stop offset="0.286" stop-color="#4a93b5"/>
      <stop offset="0.767" stop-color="#78bcbb"/>
      <stop offset="1" stop-color="#89cfbd"/>
    </linearGradient>
    <linearGradient id="linear-gradient-2" y1="0.5" x2="1" y2="0.5" gradientUnits="objectBoundingBox">
      <stop offset="0" stop-color="#52c1ad"/>
      <stop offset="1" stop-color="#dee89a"/>
    </linearGradient>
    <linearGradient id="linear-gradient-3" x1="0.5" x2="0.5" y2="1" gradientUnits="objectBoundingBox">
      <stop offset="0" stop-color="#ec413d"/>
      <stop offset="0.167" stop-color="#da4452"/>
      <stop offset="0.575" stop-color="#b0487a"/>
      <stop offset="0.862" stop-color="#954a92"/>
      <stop offset="1" stop-color="#8a4a9d"/>
    </linearGradient>
    <linearGradient id="linear-gradient-4" x1="0.5" x2="0.5" y2="1" gradientUnits="objectBoundingBox">
      <stop offset="0" stop-color="#f58879"/>
      <stop offset="0.119" stop-color="#f69079"/>
      <stop offset="0.713" stop-color="#fcb877"/>
      <stop offset="1" stop-color="#fec874"/>
    </linearGradient>
  </defs>
  <path id="Path_59482" data-name="Path 59482" d="M231.307,65.437a10.223,10.223,0,0,1-10.225,10.225H10.225A10.223,10.223,0,0,1,0,65.437V10.225A10.223,10.223,0,0,1,10.225,0H221.082a10.226,10.226,0,0,1,10.225,10.225Z" transform="translate(0 0)"/>
  <g id="PLAY_2_" transform="translate(17.348 15.361)">
    <g id="Group_29024" data-name="Group 29024" clip-path="url(#clip-path)">
      <path id="Path_59483" data-name="Path 59483" d="M38.36,32.21V83.447L64.2,57.829Z" transform="translate(-38.36 -33.005)" fill="url(#linear-gradient)"/>
    </g>
    <g id="Group_29025" data-name="Group 29025" clip-path="url(#clip-path)">
      <path id="Path_59485" data-name="Path 59485" d="M71.138,50.726,60.709,44.7,38.36,31.8v.185L64.2,57.6Z" transform="translate(-38.36 -32.78)" fill="url(#linear-gradient-2)"/>
    </g>
    <g id="Group_29026" data-name="Group 29026" clip-path="url(#clip-path)">
      <path id="Path_59487" data-name="Path 59487" d="M38.36,114.479v.19l22.349-12.907,10.428-6.019L64.2,88.86Z" transform="translate(-38.36 -64.036)" fill="url(#linear-gradient-3)"/>
    </g>
    <g id="Group_29027" data-name="Group 29027" clip-path="url(#clip-path)">
      <path id="Path_59489" data-name="Path 59489" d="M102.437,73.65,95.5,80.528l6.937,6.883,11.921-6.883Z" transform="translate(-69.66 -55.704)" fill="url(#linear-gradient-4)"/>
    </g>
  </g>
  <g id="Group_29028" data-name="Group 29028" transform="translate(173.078 28.775)">
    <path id="Path_59491" data-name="Path 59491" d="M389.657,92.3A6.468,6.468,0,0,1,387,91.765a5.043,5.043,0,0,1-2.022-1.651h-.163a20.017,20.017,0,0,1,.163,2.474v6.132H382.72V77.131h1.836l.312,2.04h.108A5.255,5.255,0,0,1,387,77.4a6.166,6.166,0,0,1,2.65-.543,5.509,5.509,0,0,1,4.577,2.026,8.914,8.914,0,0,1,1.61,5.685,8.873,8.873,0,0,1-1.637,5.7A5.514,5.514,0,0,1,389.657,92.3Zm-.326-13.526a3.983,3.983,0,0,0-3.3,1.266,6.511,6.511,0,0,0-1.049,4.025v.5a7.445,7.445,0,0,0,1.049,4.5,3.983,3.983,0,0,0,3.356,1.352,3.484,3.484,0,0,0,3.025-1.565,7.42,7.42,0,0,0,1.094-4.31,7.158,7.158,0,0,0-1.094-4.278A3.6,3.6,0,0,0,389.332,78.777Z" transform="translate(-382.72 -70.877)" fill="#f9f9f9"/>
    <path id="Path_59492" data-name="Path 59492" d="M420.557,84.785H418.3V63.63h2.257Z" transform="translate(-402.21 -63.63)" fill="#f9f9f9"/>
    <path id="Path_59493" data-name="Path 59493" d="M439.539,92.071l-.448-2.121h-.109a6.2,6.2,0,0,1-2.225,1.895,6.779,6.779,0,0,1-2.768.5,4.957,4.957,0,0,1-3.473-1.144,4.168,4.168,0,0,1-1.257-3.247q0-4.511,7.218-4.73l2.528-.081v-.923a3.781,3.781,0,0,0-.755-2.591,3.107,3.107,0,0,0-2.415-.837,9.8,9.8,0,0,0-4.215,1.144l-.692-1.727a10.876,10.876,0,0,1,5.047-1.275,5.654,5.654,0,0,1,3.948,1.185,4.942,4.942,0,0,1,1.284,3.794V92.08h-1.669Zm-5.1-1.592a4.588,4.588,0,0,0,3.31-1.153,4.282,4.282,0,0,0,1.2-3.238V84.74l-2.257.095a8.205,8.205,0,0,0-3.88.837,2.524,2.524,0,0,0-1.189,2.306,2.317,2.317,0,0,0,.742,1.863A3.075,3.075,0,0,0,434.438,90.479Z" transform="translate(-408.213 -70.915)" fill="#f9f9f9"/>
    <path id="Path_59494" data-name="Path 59494" d="M458.58,77.46H461l3.265,8.5a32.7,32.7,0,0,1,1.334,4.2h.109q.176-.692.742-2.374t3.69-10.324h2.419l-6.4,16.968A8.406,8.406,0,0,1,463.93,98a4.728,4.728,0,0,1-3.12,1.054,9.1,9.1,0,0,1-2.04-.231V97.01a7.894,7.894,0,0,0,1.673.163q2.327,0,3.319-2.609l.828-2.121Z" transform="translate(-424.274 -71.206)" fill="#f9f9f9"/>
  </g>
  <g id="Group_29030" data-name="Group 29030" transform="translate(70.195 27.106)">
    <path id="Path_59495" data-name="Path 59495" d="M291.527,79.162a5.263,5.263,0,0,1,2.211,4.21c0,2.306-1.307,3.4-2.618,4.427a2.18,2.18,0,0,0-.873,1.529,1.709,1.709,0,0,0,.81,1.339l1.122.873c1.37,1.153,2.618,2.216,2.618,4.364,0,2.93-2.835,5.888-8.194,5.888-4.522,0-6.7-2.148-6.7-4.459a4.492,4.492,0,0,1,2.4-3.8,13.41,13.41,0,0,1,5.951-1.434,3.26,3.26,0,0,1-.936-2.116,2.831,2.831,0,0,1,.312-1.216c-.344.032-.687.063-1,.063a4.93,4.93,0,0,1-5.174-4.893,5.613,5.613,0,0,1,1.994-4.179,8.5,8.5,0,0,1,5.581-1.714h6.417l-1.994,1.122ZM289.311,93a4.97,4.97,0,0,0-.715-.032,12.425,12.425,0,0,0-3.274.5c-.687.249-2.682.995-2.682,3.211s2.153,3.8,5.486,3.8c2.989,0,4.581-1.438,4.581-3.369C292.712,95.523,291.681,94.686,289.311,93Zm.9-5.92a3.16,3.16,0,0,0,.778-2.275c0-2.243-1.339-5.734-3.925-5.734a2.91,2.91,0,0,0-2.184,1.031,3.607,3.607,0,0,0-.687,2.306c0,2.089,1.216,5.549,3.9,5.549A3.215,3.215,0,0,0,290.215,87.08Z" transform="translate(-223.516 -69.855)" fill="#f9f9f9"/>
    <path id="Path_59496" data-name="Path 59496" d="M253.023,91.965a7.343,7.343,0,0,1-7.593-7.344,7.712,7.712,0,0,1,8.059-7.561,7.274,7.274,0,0,1,7.435,7.344A7.6,7.6,0,0,1,253.023,91.965Zm3.889-2.519a5.643,5.643,0,0,0,.936-3.455c0-2.74-1.307-7.968-5.164-7.968a4.347,4.347,0,0,0-2.8,1.058,4.716,4.716,0,0,0-1.434,3.8c0,3.08,1.524,8.149,5.291,8.149A3.971,3.971,0,0,0,256.912,89.447Z" transform="translate(-204.634 -69.318)" fill="#f9f9f9"/>
    <path id="Path_59497" data-name="Path 59497" d="M215.733,91.965a7.343,7.343,0,0,1-7.593-7.344A7.712,7.712,0,0,1,216.2,77.06a7.274,7.274,0,0,1,7.435,7.344A7.6,7.6,0,0,1,215.733,91.965Zm3.889-2.519a5.643,5.643,0,0,0,.936-3.455c0-2.74-1.307-7.968-5.164-7.968a4.347,4.347,0,0,0-2.8,1.058,4.716,4.716,0,0,0-1.434,3.8c0,3.08,1.524,8.149,5.291,8.149A3.984,3.984,0,0,0,219.622,89.447Z" transform="translate(-184.208 -69.318)" fill="#f9f9f9"/>
    <path id="Path_59498" data-name="Path 59498" d="M176.773,82.943,172.3,83.974a33.351,33.351,0,0,1-5.16.529c-8.638,0-11.921-6.349-11.921-11.324,0-6.069,4.662-11.7,12.64-11.7a18.01,18.01,0,0,1,4.785.656,12.138,12.138,0,0,1,4.129,1.94l-2.6,2.469-1.094.249.782-1.253a8.938,8.938,0,0,0-6.693-2.939c-4.943,0-8.665,3.753-8.665,9.23,0,5.879,4.256,11.419,11.075,11.419a9.347,9.347,0,0,0,3.975-.782V77.439l-4.721.249,2.5-1.348h6.634l-.814.782a.734.734,0,0,0-.312.5c-.032.28-.063,1.189-.063,1.5v3.817Z" transform="translate(-155.22 -60.784)" fill="#f9f9f9"/>
    <path id="Path_59499" data-name="Path 59499" d="M319.423,81.2c-1.031-.095-1.248-.28-1.248-1.5V61.989c0-.068.009-.136.018-.2.127-1.094.439-1.28,1.411-1.845h-4.477l-2.347,1.126h2.392V80.381c0,.624-.122.719-.846,1.655h5.54l1.158-.687C320.491,81.29,319.957,81.263,319.423,81.2Z" transform="translate(-241.527 -59.94)" fill="#f9f9f9"/>
    <path id="Path_59500" data-name="Path 59500" d="M341.887,90.873c-.339.185-.683.407-1.022.561a7.247,7.247,0,0,1-3.016.592,6.642,6.642,0,0,1-4.133-1.212,8.049,8.049,0,0,1-3.166-6.557,7.042,7.042,0,0,1,7.114-7.177,6.071,6.071,0,0,1,3.2.868,5.127,5.127,0,0,1,2.171,3.075l-7.3,2.953-2.392.185c.773,3.943,3.446,6.241,6.4,6.241a8,8,0,0,0,3.79-1.085Zm-2.917-9.257c.588-.217.9-.4.9-.837a3.082,3.082,0,0,0-3.075-2.673c-1.244,0-3.573.963-3.573,4.319,0,.529.063,1.085.095,1.646Z" transform="translate(-251.26 -69.329)" fill="#f9f9f9"/>
    <g id="Group_29029" data-name="Group 29029" transform="translate(92.703 7.751)">
      <path id="Path_59501" data-name="Path 59501" d="M361.137,77.293v2.049h-.249V77.293h-.678V77.08h1.605v.213Z" transform="translate(-360.21 -77.08)" fill="#f9f9f9"/>
      <path id="Path_59502" data-name="Path 59502" d="M366.364,79.341V77.27h-.013l-.633,2.071h-.195l-.638-2.071h-.009v2.071h-.226V77.08h.389l.574,1.827h.009l.565-1.827h.393v2.261Z" transform="translate(-362.642 -77.08)" fill="#f9f9f9"/>
    </g>
  </g>
  <g id="Group_29031" data-name="Group 29031" transform="translate(70.245 15.245)">
    <path id="Path_59503" data-name="Path 59503" d="M161.489,40.347h-1.556a10.473,10.473,0,0,0-.443-1.818h-2.243a9.495,9.495,0,0,0-.457,1.818H155.33q0-.19,1.135-3.111A24.457,24.457,0,0,0,157.6,34.02h1.836a27.239,27.239,0,0,0,1.027,3.17A27.449,27.449,0,0,1,161.489,40.347Zm-2.243-2.74c-.552-1.673-.832-2.573-.832-2.709h-.077a27.809,27.809,0,0,1-.859,2.709Z" transform="translate(-155.33 -33.88)" fill="#f9f9fa"/>
    <path id="Path_59504" data-name="Path 59504" d="M176.505,40.347h-1.2a11.88,11.88,0,0,0-1.334-2.1,11.506,11.506,0,0,1-1.592-2.745H172.3a17.043,17.043,0,0,1,.122,1.922c0,.8.023,1.773.068,2.926H171.3q.075-1.506.072-3.31c0-1.18-.023-2.189-.072-3.016h1.443a9.091,9.091,0,0,0,1.2,2.053,12.009,12.009,0,0,1,1.465,2.591h.072a18.626,18.626,0,0,1-.118-1.945q0-1.316-.068-2.7h1.216q-.068,1.207-.068,3.016Q176.435,38.868,176.505,40.347Z" transform="translate(-164.078 -33.88)" fill="#f9f9fa"/>
    <path id="Path_59505" data-name="Path 59505" d="M191.905,36.941a3.578,3.578,0,0,1-.886,2.41,3.086,3.086,0,0,1-2.478,1.031c-.479,0-1.14-.018-1.981-.059q.061-1.465.063-3.31,0-1.77-.063-3.016h.85q.21,0,.624-.014c.276-.009.457-.014.538-.014a3.269,3.269,0,0,1,2.542.873A3.029,3.029,0,0,1,191.905,36.941Zm-1.33.208a2.353,2.353,0,0,0-.543-1.574,2.064,2.064,0,0,0-1.66-.638,4.644,4.644,0,0,0-.574.045c.032.647.05,1.325.05,2.03,0,.773.018,1.542.05,2.3a3.34,3.34,0,0,0,.633.063,1.84,1.84,0,0,0,1.547-.647A2.534,2.534,0,0,0,190.576,37.149Z" transform="translate(-172.437 -33.852)" fill="#f9f9fa"/>
    <path id="Path_59506" data-name="Path 59506" d="M206.529,40.319h-1.438a9.5,9.5,0,0,0-.864-2.121,1.137,1.137,0,0,0-.972-.4c-.19,0-.366,0-.538,0,0,.832.014,1.673.045,2.523H201.41q.061-1.465.063-3.31,0-1.77-.063-3.016h.841q.142,0,.611-.014c.307-.009.6-.014.859-.014q2.232,0,2.23,1.524a1.713,1.713,0,0,1-1.271,1.687v.072a1.507,1.507,0,0,1,.859.764A17.393,17.393,0,0,1,206.529,40.319Zm-1.822-4.468c0-.642-.416-.968-1.244-.968a4.246,4.246,0,0,0-.8.068c.036.5.054,1.158.054,1.963.176,0,.33.009.452.009C204.191,36.928,204.707,36.566,204.707,35.851Z" transform="translate(-180.571 -33.852)" fill="#f9f9fa"/>
    <path id="Path_59507" data-name="Path 59507" d="M220.637,36.9a3.485,3.485,0,0,1-.914,2.474,2.96,2.96,0,0,1-2.261.981,2.858,2.858,0,0,1-2.148-.9,3.184,3.184,0,0,1-.864-2.288,3.485,3.485,0,0,1,.914-2.474,2.96,2.96,0,0,1,2.261-.981,2.858,2.858,0,0,1,2.148.9A3.169,3.169,0,0,1,220.637,36.9Zm-1.339.145a2.493,2.493,0,0,0-.52-1.646,1.605,1.605,0,0,0-1.284-.633,1.475,1.475,0,0,0-1.2.638,2.542,2.542,0,0,0-.5,1.61,2.51,2.51,0,0,0,.52,1.646,1.6,1.6,0,0,0,1.28.633,1.475,1.475,0,0,0,1.2-.638A2.552,2.552,0,0,0,219.3,37.043Z" transform="translate(-187.714 -33.71)" fill="#f9f9fa"/>
    <path id="Path_59508" data-name="Path 59508" d="M232.535,40.347H231.16q.061-1.506.063-3.31c0-1.18-.023-2.189-.063-3.016h1.375c-.041.814-.063,1.822-.063,3.016Q232.471,38.875,232.535,40.347Z" transform="translate(-196.867 -33.88)" fill="#f9f9fa"/>
    <path id="Path_59509" data-name="Path 59509" d="M243.3,36.941a3.578,3.578,0,0,1-.886,2.41,3.086,3.086,0,0,1-2.478,1.031c-.479,0-1.14-.018-1.981-.059q.061-1.465.063-3.31,0-1.77-.063-3.016h.85q.21,0,.624-.014c.276-.009.457-.014.538-.014a3.269,3.269,0,0,1,2.542.873A3.008,3.008,0,0,1,243.3,36.941Zm-1.325.208a2.353,2.353,0,0,0-.543-1.574,2.064,2.064,0,0,0-1.66-.638,4.644,4.644,0,0,0-.574.045c.032.647.05,1.325.05,2.03,0,.773.018,1.542.05,2.3a3.34,3.34,0,0,0,.633.063,1.84,1.84,0,0,0,1.547-.647A2.534,2.534,0,0,0,241.97,37.149Z" transform="translate(-200.587 -33.852)" fill="#f9f9fa"/>
    <path id="Path_59510" data-name="Path 59510" d="M262.969,40.347h-1.556a10.467,10.467,0,0,0-.443-1.818h-2.243a9.5,9.5,0,0,0-.457,1.818H256.81q0-.19,1.135-3.111a24.449,24.449,0,0,0,1.135-3.215h1.836a27.247,27.247,0,0,0,1.027,3.17A28.57,28.57,0,0,1,262.969,40.347Zm-2.243-2.74c-.552-1.673-.832-2.573-.832-2.709h-.077a27.807,27.807,0,0,1-.859,2.709Z" transform="translate(-210.918 -33.88)" fill="#f9f9fa"/>
    <path id="Path_59511" data-name="Path 59511" d="M277.367,35.647a1.892,1.892,0,0,1-.864,1.714,3.821,3.821,0,0,1-2.116.552c-.154,0-.262,0-.326-.009,0,.611.018,1.411.054,2.41H272.75q.061-1.4.063-3.31,0-1.75-.063-3.016h.846q.176,0,.692-.014c.339-.009.633-.014.886-.014a2.807,2.807,0,0,1,1.56.416A1.427,1.427,0,0,1,277.367,35.647Zm-1.253.267c0-.692-.461-1.04-1.379-1.04a3.782,3.782,0,0,0-.728.072c.036.611.054,1.307.054,2.08.081,0,.176.009.28.009C275.522,37.035,276.115,36.664,276.115,35.914Z" transform="translate(-219.649 -33.847)" fill="#f9f9fa"/>
    <path id="Path_59512" data-name="Path 59512" d="M290.247,35.647a1.892,1.892,0,0,1-.864,1.714,3.821,3.821,0,0,1-2.116.552c-.154,0-.262,0-.326-.009,0,.611.018,1.411.054,2.41H285.63q.061-1.4.063-3.31,0-1.75-.063-3.016h.846q.176,0,.692-.014c.339-.009.633-.014.886-.014a2.807,2.807,0,0,1,1.56.416A1.418,1.418,0,0,1,290.247,35.647Zm-1.253.267c0-.692-.461-1.04-1.379-1.04a3.782,3.782,0,0,0-.728.072c.036.611.054,1.307.054,2.08.081,0,.176.009.28.009C288.407,37.035,288.995,36.664,288.995,35.914Z" transform="translate(-226.704 -33.847)" fill="#f9f9fa"/>
    <path id="Path_59513" data-name="Path 59513" d="M309.417,36.9a3.485,3.485,0,0,1-.913,2.474,2.96,2.96,0,0,1-2.261.981,2.858,2.858,0,0,1-2.148-.9,3.184,3.184,0,0,1-.864-2.288,3.485,3.485,0,0,1,.913-2.474,2.96,2.96,0,0,1,2.261-.981,2.858,2.858,0,0,1,2.148.9A3.169,3.169,0,0,1,309.417,36.9Zm-1.343.145a2.493,2.493,0,0,0-.52-1.646,1.605,1.605,0,0,0-1.284-.633,1.475,1.475,0,0,0-1.2.638,2.541,2.541,0,0,0-.5,1.61,2.487,2.487,0,0,0,.525,1.646,1.6,1.6,0,0,0,1.28.633,1.475,1.475,0,0,0,1.2-.638A2.55,2.55,0,0,0,308.073,37.043Z" transform="translate(-236.345 -33.71)" fill="#f9f9fa"/>
    <path id="Path_59514" data-name="Path 59514" d="M325.165,40.347h-1.2a11.878,11.878,0,0,0-1.334-2.1,11.5,11.5,0,0,1-1.592-2.745h-.077a17.036,17.036,0,0,1,.122,1.922c0,.8.023,1.773.068,2.926H319.96q.075-1.506.072-3.31c0-1.18-.023-2.189-.072-3.016H321.4a9.089,9.089,0,0,0,1.2,2.053,12.007,12.007,0,0,1,1.465,2.591h.072a18.626,18.626,0,0,1-.118-1.945q0-1.316-.068-2.7h1.216q-.068,1.207-.068,3.016Q325.1,38.868,325.165,40.347Z" transform="translate(-245.509 -33.88)" fill="#f9f9fa"/>
  </g>
</svg>
