<?xml version="1.0" encoding="utf-8"?>
<!-- Generator: Adobe Illustrator 23.0.5, SVG Export Plug-In . SVG Version: 6.00 Build 0)  -->
<svg version="1.1" id="Layer_1" xmlns="http://www.w3.org/2000/svg" xmlns:xlink="http://www.w3.org/1999/xlink" x="0px" y="0px"
	 viewBox="0 0 512 512" style="enable-background:new 0 0 512 512;" xml:space="preserve">
<style type="text/css">
	.st0{fill:#00BF91;}
	.st1{fill:#F6BC45;}
	.st2{fill:#055DF3;}
	.st3{fill:#EB3D66;}
</style>
<path id="Path_59382" class="st0" d="M0,0c80.3,0,160.3,0.1,240.4,0.2c0,80.1-0.1,160-0.2,240.3c-80,0-159.9-0.1-240.2-0.2
	C0.1,160.3,0,80.3,0,0z"/>
<path id="Path_59383" class="st1" d="M0.6,271.7l240,0.2c0.2,0.9,0.4,1.9,0.4,2.8c-0.1,41.4,1.1,82.8-0.5,124.1
	c-0.7,45-27.8,85.4-69.2,103c-14.4,7-30.3,10.3-46.3,10.2c-40.8,0-125,0-125,0C0.1,431.9,0.5,352.1,0.6,271.7z"/>
<path id="Path_59384" class="st2" d="M269.8,240.5c0-80.2,0.1-160,0.2-240.5c0,0,82.5,0,121.3,0.1c59,0,110.4,43,119.6,101.3
	c0.9,5.5,1.2,11.1,1.2,16.7v122.6C431.8,240.6,350.3,240.5,269.8,240.5z"/>
<path id="Path_59385" class="st3" d="M512,271.6l0,240.4l-63.8,0c-58.3,1.5-108.8-39.5-118.7-97.1c-13.7-63.9,26.9-126.7,90.8-140.5
	c7.2-1.6,14.6-2.6,22-2.8H512z"/>
</svg>
